<svg width="375" height="801" viewBox="0 0 375 801" fill="none" xmlns="http://www.w3.org/2000/svg">
<g opacity="0.1">
<path d="M6 71.5312C6 65.0701 0.586182 59.8125 -5.875 59.8125H-8.21875L-12.9062 64.793V79.1484L-8.21875 83.25H-5.875C0.586182 83.25 6 77.9924 6 71.5312Z" fill="#FF641A"/>
<path d="M6 687.906V749H-74V687.906L-69.3125 683.219H1.3125L6 687.906Z" fill="#EFEFF4"/>
<path d="M6 687.906V749H-34V683.219H1.3125L6 687.906Z" fill="#DADAE5"/>
<path d="M-74 669H6V687.906H-74V669Z" fill="#474F54"/>
<path d="M-34 669H6V687.906H-34V669Z" fill="#32393F"/>
<path d="M6 590.125V642H-74V590.125L-69.3125 585.438H1.3125L6 590.125Z" fill="#EFEFF4"/>
<path d="M6 590.125V642H-34V585.438H1.3125L6 590.125Z" fill="#DADAE5"/>
<path d="M6 571.375V590.125H-74V571.375H-64.3278L-62.031 569.031L-59.5469 571.375H-40.8903L-38.8285 569.031L-36.1094 571.375H-17.4528L-15.109 569.031L-12.6719 571.375H6Z" fill="#FF9100"/>
<path d="M6 571.375V590.125H-34V571.375H-17.4528L-15.109 569.031L-12.6719 571.375H6Z" fill="#FF641A"/>
<path d="M-3.84009 490.656C-4.55908 485.641 -6.55493 480.832 -9.61279 476.754L-5.8634 473.943C-2.33435 478.649 -0.0296631 484.199 0.801636 489.992L-3.84009 490.656Z" fill="#76E2F8"/>
<path d="M-5.8634 516.057L-9.61279 513.246C-6.55493 509.168 -4.55908 504.359 -3.84009 499.344L0.801636 500.008C-0.0296631 505.801 -2.33435 511.351 -5.8634 516.057Z" fill="#76E2F8"/>
<path d="M-1.1875 502.031C-5.06445 502.031 -8.21875 498.877 -8.21875 495C-8.21875 491.123 -5.06445 487.969 -1.1875 487.969C2.68945 487.969 6 491.123 6 495C6 498.877 2.68945 502.031 -1.1875 502.031Z" fill="#76E2F8"/>
<path d="M-2.59924 353.362L2.68457 348.078L5.99939 351.392L0.714966 356.677L-2.59924 353.362Z" fill="#FF637B"/>
<path d="M4.34229 349.734L5.99939 351.391L0.714966 356.676L-0.942139 355.018L4.34229 349.734Z" fill="#E63950"/>
<path d="M-2.83118 376.331L-22.2544 356.908C-16.3877 354.157 -9.9906 352.666 -3.36096 352.666H1.41199V357.438C1.41138 364.068 -0.0797119 370.465 -2.83118 376.331Z" fill="#FF637B"/>
<path d="M-2.83118 376.331L-12.5425 366.619L1.41199 352.666L1.41138 357.438C1.41138 364.068 -0.0797119 370.465 -2.83118 376.331Z" fill="#E63950"/>
<path d="M-12.9062 264.438H1.15625V318.656H-12.9062V264.438Z" fill="#FF9100"/>
<path d="M-5.875 241C-9.76599 241 -12.9062 244.14 -12.9062 248.031C-12.9062 251.922 -9.76599 255.062 -5.875 255.062C-1.98401 255.062 1.15625 251.922 1.15625 248.031C1.15625 244.14 -1.98401 241 -5.875 241Z" fill="#76E2F8"/>
<path d="M-74 316.312H6V321H-74V316.312Z" fill="#676E74"/>
<path d="M-34 316.312H6V321H-34V316.312Z" fill="#474F54"/>
<path d="M6 182.438V192.906H1.3125V203.531H-3.375V214H-28.7498C-32.4528 214 -36.1564 213.156 -39.484 211.515C-42.3441 210.156 -45.5936 209.312 -48.7815 209.312H-50.5625L-55.25 204.625V181.188L-50.5625 176.5H-43.7656C-39.3595 176.5 -34.9375 174.344 -31.9846 170.265C-30.156 167.688 -29.3125 164.344 -29.3125 161.156V152.906H-26.9688C-26.1252 152.906 -25.3751 153.047 -24.625 153.328C-21.9059 154.266 -19.9375 156.891 -19.9375 159.938V171.812H1.3125V182.438H6Z" fill="#FED2A4"/>
<path d="M6 182.438V192.906H1.3125V203.531H-3.375V214H-24.625V153.328C-21.9059 154.266 -19.9375 156.891 -19.9375 159.938V171.812H1.3125V182.438H6Z" fill="#FFBD86"/>
<path d="M302 582.906V634.625H222V582.906L226.688 578.219H297.312L302 582.906Z" fill="#EFEFF4"/>
<path d="M302 582.906V634.625H262V578.219H297.312L302 582.906Z" fill="#DADAE5"/>
<path d="M222 564H302V582.906H222V564Z" fill="#474F54"/>
<path d="M262 564H302V582.906H262V564Z" fill="#32393F"/>
<path d="M231.531 571.188H236.219V575.875H231.531V571.188Z" fill="#9BFCFF"/>
<path d="M240.906 571.188H245.594V575.875H240.906V571.188Z" fill="#9BFCFF"/>
<path d="M250.281 571.188H254.969V575.875H250.281V571.188Z" fill="#9BFCFF"/>
<path d="M278.406 616.515V644H264.344V639.312H259.656V644H245.594V616.515L259.844 604.797H263.735L278.406 616.515Z" fill="#FF637B"/>
<path d="M236.219 592.281H287.781V596.969H236.219V592.281Z" fill="#DADAE5"/>
<path d="M262 592.281H287.781V596.969H262V592.281Z" fill="#C9C9D3"/>
<path d="M278.406 616.515V644H264.344V639.312H262V604.797H263.735L278.406 616.515Z" fill="#E63950"/>
<path d="M259.656 620.406H264.344V625.094H259.656V620.406Z" fill="#EFEFF4"/>
<path d="M262 620.406H264.344V625.094H262V620.406Z" fill="#DADAE5"/>
<path d="M284.641 621.015L281.547 624.485L262 607.14L242.453 624.485L239.359 621.015L262 600.86L284.641 621.015Z" fill="#676E74"/>
<path d="M262 600.86L284.641 621.015L281.547 624.485L262 607.14V600.86Z" fill="#474F54"/>
<path fill-rule="evenodd" clip-rule="evenodd" d="M263.469 464.531C267.359 458.719 273.922 455 280.906 455C292.531 455 302 464.625 302 476.25C302 487.875 292.531 497.5 280.906 497.5C273.922 497.5 267.359 493.781 263.469 487.969H252.469L248.766 484.266L244.078 488.953L239.391 484.266L234.656 489L222.516 476.25L222 475.687L233.766 464.531H263.469ZM278.562 476.25C278.562 480.141 281.703 483.281 285.594 483.281C289.485 483.281 292.625 480.141 292.625 476.25C292.625 472.359 289.485 469.219 285.594 469.219C281.703 469.219 278.562 472.359 278.562 476.25Z" fill="#FDBF00"/>
<path d="M222 502.188H264.5V506.875H222V502.188Z" fill="#676E74"/>
<path d="M269.188 502.188H287.938V506.875H269.188V502.188Z" fill="#676E74"/>
<path d="M292.625 502.188H302V506.875H292.625V502.188Z" fill="#676E74"/>
<path d="M222 511.562H236.062V516.25H222V511.562Z" fill="#676E74"/>
<path d="M240.75 511.562H273.875V516.25H240.75V511.562Z" fill="#676E74"/>
<path d="M278.562 511.562H302V516.25H278.562V511.562Z" fill="#676E74"/>
<path d="M222 530.312H226.688V535H222V530.312Z" fill="#676E74"/>
<path d="M231.375 530.312H273.875V535H231.375V530.312Z" fill="#676E74"/>
<path d="M278.562 530.312H302V535H278.562V530.312Z" fill="#676E74"/>
<path d="M222 520.938H254.969V525.625H222V520.938Z" fill="#676E74"/>
<path d="M259.656 520.938H302V525.625H259.656V520.938Z" fill="#676E74"/>
<path d="M302 476.25C302 487.875 292.531 497.5 280.906 497.5C273.922 497.5 267.359 493.781 263.469 487.969H252.469L248.766 484.266L244.078 488.953L239.391 484.266L234.656 489L222.516 476.25H278.562C278.562 480.141 281.703 483.281 285.594 483.281C289.485 483.281 292.625 480.141 292.625 476.25H302Z" fill="#FF9100"/>
<path d="M302 368.906V420.469H222V368.906L226.688 364.219H297.312L302 368.906Z" fill="#EFEFF4"/>
<path d="M302 368.906V420.469H262V364.219H297.312L302 368.906Z" fill="#DADAE5"/>
<path d="M222 350H302V368.906H222V350Z" fill="#474F54"/>
<path d="M262 350H302V368.906H262V350Z" fill="#32393F"/>
<path d="M231.531 357.188H236.219V361.875H231.531V357.188Z" fill="#9BFCFF"/>
<path d="M240.906 357.188H245.594V361.875H240.906V357.188Z" fill="#9BFCFF"/>
<path d="M250.281 357.188H254.969V361.875H250.281V357.188Z" fill="#9BFCFF"/>
<path d="M254.969 407.953H269.031V430H254.969V407.953Z" fill="#FDBF00"/>
<path d="M262 407.953H269.031V430H262V407.953Z" fill="#FF9100"/>
<path d="M262 378.281C252.953 378.281 245.594 385.641 245.594 394.688C245.594 403.734 252.953 411.094 262 411.094C271.047 411.094 278.406 403.734 278.406 394.688C278.406 385.641 271.047 378.281 262 378.281Z" fill="#676E74"/>
<path d="M278.406 394.688C278.406 403.734 271.047 411.094 262 411.094V378.281C271.047 378.281 278.406 385.641 278.406 394.688Z" fill="#474F54"/>
<path d="M262 382.969C255.531 382.969 250.281 388.219 250.281 394.688C250.281 401.156 255.531 406.406 262 406.406C268.469 406.406 273.719 401.156 273.719 394.688C273.719 388.219 268.469 382.969 262 382.969Z" fill="#9BFCFF"/>
<path d="M273.719 394.688C273.719 401.156 268.469 406.406 262 406.406V382.969C268.469 382.969 273.719 388.219 273.719 394.688Z" fill="#76E2F8"/>
<path d="M240.906 245.688H297.312V259.906H240.906V245.688Z" fill="#676E74"/>
<path d="M262 245.688H297.312V259.906H262V245.688Z" fill="#474F54"/>
<path d="M302 264.594V311.625H222V264.594L226.688 259.906H297.312L302 264.594Z" fill="#676E74"/>
<path d="M302 264.594V311.625H262V259.906H297.312L302 264.594Z" fill="#474F54"/>
<path fill-rule="evenodd" clip-rule="evenodd" d="M278.359 298.593C278.406 299.016 278.406 299.484 278.406 299.906C278.406 300.328 278.406 300.797 278.359 301.219L283.094 304.359L276.062 316.547L271.281 313.36C270.531 313.875 269.828 314.297 269.031 314.672V321H254.969V314.671C254.172 314.297 253.469 313.875 252.719 313.359L247.938 316.547L240.906 304.359L245.641 301.219C245.594 300.797 245.594 300.328 245.594 299.906C245.594 299.484 245.594 299.016 245.641 298.593L240.906 295.453L247.938 283.266L252.719 286.453C253.469 285.937 254.172 285.515 254.969 285.141V278.812H269.031V285.141C269.828 285.515 270.531 285.937 271.281 286.453L276.062 283.266L283.094 295.453L278.359 298.593ZM254.969 299.906C254.969 303.797 258.109 306.938 262 306.938C265.891 306.938 269.031 303.797 269.031 299.906C269.031 296.015 265.891 292.875 262 292.875C258.109 292.875 254.969 296.015 254.969 299.906Z" fill="#FDBF00"/>
<path d="M278.359 301.219L283.094 304.359L276.062 316.547L271.281 313.36C270.531 313.875 269.828 314.297 269.031 314.672V321H262V306.938C265.891 306.938 269.031 303.797 269.031 299.906C269.031 296.015 265.891 292.875 262 292.875V278.812H269.031V285.141C269.828 285.515 270.531 285.937 271.281 286.453L276.062 283.266L283.094 295.453L278.359 298.593C278.406 299.016 278.406 299.484 278.406 299.906C278.406 300.328 278.406 300.797 278.359 301.219Z" fill="#FF9100"/>
<path d="M302 255.219V264.594H222V241H249.625L254.313 255.219H302Z" fill="#FDBF00"/>
<path d="M262 255.219H302V264.594H262V255.219Z" fill="#FF9100"/>
<path d="M254.969 152.75V157.438H226.781L222 152.75V149.047L240.906 138.266L243.906 136.516L254.969 152.75Z" fill="#FDBF00"/>
<path d="M254.969 152.75V157.438H240.906V138.266L243.906 136.516L254.969 152.75Z" fill="#FF9100"/>
<path d="M261.203 202.125L245.594 190.406V195.094H236.219C233.641 195.094 231.375 192.984 231.375 190.406H226.688V199.781C226.688 204.938 231.062 209.156 236.219 209.156H245.594V214L261.203 202.125Z" fill="#9BFCFF"/>
<path d="M287.781 138.688H278.406V134L262.797 145.719L278.406 157.438V152.75H287.781C290.359 152.75 292.469 154.859 292.469 157.438H297.156V148.062C297.156 142.906 292.938 138.688 287.781 138.688Z" fill="#9BFCFF"/>
<path d="M287.781 152.75H283.094V138.688H287.781C292.938 138.688 297.156 142.906 297.156 148.062V157.438H292.469C292.469 154.859 290.359 152.75 287.781 152.75Z" fill="#76E2F8"/>
<path d="M259.656 143.375V185.719H222V152.75H250.281C245.125 152.75 240.906 148.531 240.906 143.375C240.906 141.453 241.469 139.672 242.453 138.172C244.188 135.688 247.047 134 250.281 134C255.438 134 259.656 138.219 259.656 143.375Z" fill="#EFEFF4"/>
<path d="M259.656 143.375V185.719H240.906V152.75H250.281C245.125 152.75 240.906 148.531 240.906 143.375C240.906 141.453 241.469 139.672 242.453 138.172C244.188 135.688 247.047 134 250.281 134C255.438 134 259.656 138.219 259.656 143.375Z" fill="#DADAE5"/>
<path d="M245.594 214V209.156H240.906V195.094H245.594V190.406L261.203 202.125L245.594 214Z" fill="#76E2F8"/>
<path d="M297.312 180.875V185.562H269.125L264.344 180.875V177.172L283.25 166.391L286.25 164.641L297.312 180.875Z" fill="#FDBF00"/>
<path d="M297.312 180.875V185.562H283.25V166.391L286.25 164.641L297.312 180.875Z" fill="#FF9100"/>
<path d="M302 171.5V213.844H264.344V180.875H292.625C287.469 180.875 283.25 176.656 283.25 171.5C283.25 169.578 283.813 167.797 284.797 166.297C286.531 163.813 289.391 162.125 292.625 162.125C297.781 162.125 302 166.344 302 171.5Z" fill="#EFEFF4"/>
<path d="M302 171.5V213.844H283.25V180.875H292.625C287.469 180.875 283.25 176.656 283.25 171.5C283.25 169.578 283.813 167.797 284.797 166.297C286.531 163.813 289.391 162.125 292.625 162.125C297.781 162.125 302 166.344 302 171.5Z" fill="#DADAE5"/>
<path d="M278.406 27V43.5625H273.719V31.6875H250.281V43.5625H245.594V27H278.406Z" fill="#474F54"/>
<path d="M278.406 27V43.5625H273.719V31.6875H262V27H278.406Z" fill="#32393F"/>
<path d="M297.312 59.9688V107H269.031L264.344 102.312H259.656L254.969 107H226.688V59.9688H297.312Z" fill="#474F54"/>
<path d="M297.312 59.9688V107H269.031L264.344 102.312H262V59.9688H297.312Z" fill="#32393F"/>
<path d="M302 46.7968V64.6562H222V46.7968L233.312 41.2188H290.844L302 46.7968Z" fill="#FF637B"/>
<path d="M302 46.7968V64.6562H262V41.2188H290.844L302 46.7968Z" fill="#E63950"/>
<path d="M259.656 69.3438H257.312C251.654 69.3438 246.92 73.3763 245.831 78.7188L253.211 83.4062L259.656 78.7188V69.3438Z" fill="#DADAE5"/>
<path d="M266.688 69.3438H264.344V78.7188L272.156 83.4062L278.169 78.7188C277.08 73.3763 272.346 69.3438 266.688 69.3438Z" fill="#C9C9D3"/>
<path d="M250.281 64.6562H236.219V50.5938H250.281V64.6562Z" fill="#FDBF00"/>
<path d="M287.781 64.6562H273.719V50.5938H287.781V64.6562Z" fill="#FF9100"/>
<path d="M278.406 81.0625V91.8907L269.031 97.4688L264.344 102.312H259.656L254.969 97.4688L245.594 91.8907V81.0625C245.594 80.266 245.688 79.4689 245.828 78.7188H278.172C278.312 79.4689 278.406 80.266 278.406 81.0625Z" fill="#EFEFF4"/>
<path d="M278.172 78.7188C278.312 79.4689 278.406 80.266 278.406 81.0625V91.8907L269.031 97.4688L264.344 102.312H262V78.7188H278.172Z" fill="#DADAE5"/>
<path d="M254.969 97.4688H269.031V107H254.969V97.4688Z" fill="#DADAE5"/>
<path d="M262 97.4688H269.031V107H262V97.4688Z" fill="#C9C9D3"/>
<path d="M249.643 717.434C245.069 712.86 237.645 712.86 233.071 717.434C231.513 718.992 230.419 720.947 229.922 723.102L222 745.077L243.81 737.189C245.997 736.724 248.019 735.63 249.643 734.006C254.217 729.432 254.217 722.008 249.643 717.434Z" fill="#FFDA2D"/>
<path d="M222 745.077L249.643 717.434C254.217 722.008 254.217 729.432 249.643 734.007C248.019 735.63 245.997 736.724 243.81 737.189L222 745.077Z" fill="#FDBF00"/>
<path d="M256.47 688.817L241.006 689.611L224.014 706.603L243.906 710.583L256.47 688.817Z" fill="#676E74"/>
<path d="M278.26 710.607L256.494 723.171L260.474 743.063L277.466 726.071L278.26 710.607Z" fill="#474F54"/>
<path d="M284.352 705.927C279.248 711.031 273.646 715.638 267.58 719.649L262.94 722.765L255.284 721.737L245.34 711.794L244.313 704.137L247.428 699.496C251.438 693.431 256.046 687.829 261.15 682.725C264.863 679.012 269.139 676.063 273.746 673.908L281.8 675.333L291.744 685.277L293.169 693.331C291.015 697.939 288.064 702.214 284.352 705.927Z" fill="#EFEFF4"/>
<path d="M284.352 705.927C279.248 711.031 273.646 715.638 267.58 719.649L262.94 722.765L255.284 721.737L250.312 716.766L286.772 680.305L291.744 685.277L293.169 693.331C291.015 697.939 288.064 702.214 284.352 705.927Z" fill="#DADAE5"/>
<path d="M273.514 693.563C270.763 690.812 266.321 690.812 263.57 693.563C260.819 696.314 260.819 700.756 263.57 703.507C266.321 706.259 270.763 706.258 273.514 703.507C276.265 700.756 276.265 696.315 273.514 693.563Z" fill="#64E1DC"/>
<path d="M293.401 670.362L298.685 665.078L301.999 668.392L296.715 673.677L293.401 670.362Z" fill="#FF637B"/>
<path d="M263.57 703.507L273.514 693.563C276.265 696.315 276.265 700.756 273.514 703.507C270.763 706.258 266.321 706.259 263.57 703.507Z" fill="#00C8C8"/>
<path d="M300.342 666.734L301.999 668.391L296.715 673.676L295.058 672.018L300.342 666.734Z" fill="#E63950"/>
<path d="M293.169 693.331L273.746 673.908C279.612 671.157 286.009 669.666 292.639 669.666H297.412V674.438C297.411 681.068 295.92 687.465 293.169 693.331Z" fill="#FF637B"/>
<path d="M293.169 693.331L283.458 683.619L297.412 669.666L297.411 674.438C297.411 681.068 295.92 687.465 293.169 693.331Z" fill="#E63950"/>
<path d="M262.941 722.765L254.985 728.068L239.009 712.092L244.313 704.137L262.941 722.765Z" fill="#FF637B"/>
<path d="M253.627 713.451L262.941 722.765L254.985 728.068L246.997 720.08L253.627 713.451Z" fill="#E63950"/>
<path d="M154 -7.09375V44.625H74V-7.09375L78.6875 -11.7812H149.312L154 -7.09375Z" fill="#EFEFF4"/>
<path d="M154 -7.09375V44.625H114V-11.7812H149.312L154 -7.09375Z" fill="#DADAE5"/>
<path d="M130.406 26.5153V54H116.344V49.3125H111.656V54H97.5938V26.5153L111.844 14.7965H115.735L130.406 26.5153Z" fill="#FF637B"/>
<path d="M88.2188 2.28125H139.781V6.96875H88.2188V2.28125Z" fill="#DADAE5"/>
<path d="M114 2.28125H139.781V6.96875H114V2.28125Z" fill="#C9C9D3"/>
<path d="M130.406 26.5153V54H116.344V49.3125H114V14.7965H115.735L130.406 26.5153Z" fill="#E63950"/>
<path d="M111.656 30.4062H116.344V35.0938H111.656V30.4062Z" fill="#EFEFF4"/>
<path d="M114 30.4062H116.344V35.0938H114V30.4062Z" fill="#DADAE5"/>
<path d="M136.641 31.0154L133.547 34.4846L114 17.1403L94.4535 34.4846L91.359 31.0154L114 10.8597L136.641 31.0154Z" fill="#676E74"/>
<path d="M114 10.8597L136.641 31.0154L133.547 34.4846L114 17.1403V10.8597Z" fill="#474F54"/>
<path d="M106.969 683.781H121.031V698H106.969V683.781Z" fill="#DADAE5"/>
<path d="M114 683.781H121.031V698H114V683.781Z" fill="#C9C9D3"/>
<path d="M102.281 676.75H125.719V688.469H102.281V676.75Z" fill="#EFEFF4"/>
<path d="M114 676.75H125.719V688.469H114V676.75Z" fill="#DADAE5"/>
<path d="M130.265 663.906C127.359 666.297 125.719 669.672 125.719 673.187V676.75H102.281V673.187C102.281 669.625 100.734 666.297 98.1565 664.281C91.8284 659.359 88.2188 651.953 88.2188 643.938C88.2188 636.156 91.6874 628.844 97.7347 623.922C102.375 620.172 108.047 618 114 618C115.828 618 117.703 618.187 119.531 618.563C129.656 620.672 137.625 629.125 139.406 639.391C141 648.766 137.625 657.953 130.265 663.906Z" fill="#FFDA2D"/>
<path d="M130.265 663.906C127.359 666.297 125.719 669.672 125.719 673.187V676.75H114V618C115.828 618 117.703 618.187 119.531 618.563C129.656 620.672 137.625 629.125 139.406 639.391C141 648.766 137.625 657.953 130.265 663.906Z" fill="#FDBF00"/>
<path d="M97.5938 674.406H130.406V679.094H97.5938V674.406Z" fill="#DADAE5"/>
<path d="M123.944 630.678L127.259 633.992L122.286 638.966L118.971 635.651L123.944 630.678Z" fill="#FF9100"/>
<path d="M105.714 648.908L109.029 652.222L104.055 657.196L100.741 653.882L105.714 648.908Z" fill="#FDBF00"/>
<path d="M111.656 653.312H116.344V660.344H111.656V653.312Z" fill="#FDBF00"/>
<path d="M122.286 648.908L127.259 653.882L123.944 657.196L118.971 652.222L122.286 648.908Z" fill="#FF9100"/>
<path d="M123.375 641.594H130.406V646.281H123.375V641.594Z" fill="#FF9100"/>
<path d="M104.055 630.678L109.029 635.652L105.714 638.966L100.741 633.992L104.055 630.678Z" fill="#FDBF00"/>
<path d="M97.5938 641.594H104.625V646.281H97.5938V641.594Z" fill="#FDBF00"/>
<path d="M111.656 627.531H116.344V634.562H111.656V627.531Z" fill="#FDBF00"/>
<path d="M74 641.594H83.5312V646.281H74V641.594Z" fill="#FFDA2D"/>
<path d="M82.2312 636.513L75.0437 631.825L77.6438 627.925L84.8313 632.612L82.2312 636.513Z" fill="#FFDA2D"/>
<path d="M77.6438 659.95L75.0437 656.05L82.2312 651.362L84.8313 655.263L77.6438 659.95Z" fill="#FFDA2D"/>
<path d="M144.469 641.594H154V646.281H144.469V641.594Z" fill="#FDBF00"/>
<path d="M150.356 659.95L143.169 655.263L145.769 651.362L152.956 656.05L150.356 659.95Z" fill="#FDBF00"/>
<path d="M145.769 636.513L143.169 632.612L150.356 627.925L152.956 631.825L145.769 636.513Z" fill="#FDBF00"/>
<path d="M114 627.531H116.344V634.562H114V627.531Z" fill="#FF9100"/>
<path d="M114 653.312H116.344V660.344H114V653.312Z" fill="#FF9100"/>
<path d="M114 674.406H130.406V679.094H114V674.406Z" fill="#C9C9D3"/>
<path d="M114 632.219C107.531 632.219 102.281 637.469 102.281 643.938C102.281 650.406 107.531 655.656 114 655.656C120.469 655.656 125.719 650.406 125.719 643.938C125.719 637.469 120.469 632.219 114 632.219Z" fill="#FDBF00"/>
<path d="M114 655.656V632.219C120.469 632.219 125.719 637.469 125.719 643.938C125.719 650.406 120.469 655.656 114 655.656Z" fill="#FF9100"/>
<path d="M111.656 641.594H116.344V646.281H111.656V641.594Z" fill="#FFDA2D"/>
<path d="M114 641.594H116.344V646.281H114V641.594Z" fill="#FDBF00"/>
<path d="M135.25 555C135.25 558.063 134.566 561.11 133.392 563.736L142.545 572.584L150.468 571.498C152.718 566.507 154 560.83 154 555C154 549.17 152.718 543.493 150.468 538.502L142.074 537.63L133.392 546.264C134.566 548.89 135.25 551.937 135.25 555Z" fill="#FF641A"/>
<path d="M92.75 555C92.75 551.937 93.4342 548.89 94.6079 546.264L86.8088 538.032L77.5321 538.502C75.2823 543.493 74 549.17 74 555C74 560.83 75.2817 566.507 77.5321 571.498L85.9257 572.37L94.6079 563.736C93.4342 561.11 92.75 558.063 92.75 555Z" fill="#FF9100"/>
<path d="M132.344 585.203L130.516 591.484C125.5 593.734 119.812 595 114 595C108.188 595 102.5 593.734 97.4845 591.484L96.0782 584.266L105.265 574.375C107.89 575.547 110.953 576.25 114 576.25C117.047 576.25 120.11 575.547 122.735 574.375L132.344 585.203Z" fill="#FF9100"/>
<path d="M130.609 528.594L122.734 535.625C120.11 534.453 117.047 533.75 114 533.75C110.953 533.75 107.89 534.453 105.265 535.625L96.9688 527.609L97.4845 518.516C102.5 516.266 108.188 515 114 515C119.812 515 125.5 516.266 130.516 518.516L130.609 528.594Z" fill="#FF9100"/>
<path d="M122.735 535.625C120.11 534.453 117.047 533.75 114 533.75V515C119.812 515 125.5 516.266 130.516 518.516L130.609 528.594L122.735 535.625Z" fill="#FF641A"/>
<path d="M132.344 585.203L130.516 591.484C125.5 593.734 119.812 595 114 595V576.25C117.047 576.25 120.11 575.547 122.735 574.375L132.344 585.203Z" fill="#FF641A"/>
<path d="M97.5034 518.531C89.0043 522.364 81.6404 529.39 77.5321 538.502L94.6079 546.264C96.6941 541.597 100.819 537.594 105.265 535.608L97.5034 518.531Z" fill="#EFEFF4"/>
<path d="M133.392 563.736C131.318 568.375 127.207 572.394 122.735 574.392L130.498 591.468C139.235 587.528 146.463 580.379 150.468 571.498L133.392 563.736Z" fill="#DADAE5"/>
<path d="M94.6079 563.736L77.5321 571.498C81.5098 580.322 88.7095 587.503 97.5022 591.468L105.265 574.392C100.847 572.418 96.7075 568.433 94.6079 563.736V563.736Z" fill="#EFEFF4"/>
<path d="M130.498 518.532L122.735 535.608C127.517 537.745 131.454 541.928 133.392 546.264L150.468 538.502C146.521 529.748 139.363 522.529 130.498 518.532Z" fill="#DADAE5"/>
<path d="M154 434.281L150.812 453.406C149.5 461.328 142.703 467.25 134.641 467.25H95.25V434.281H154Z" fill="#EFEFF4"/>
<path d="M154 434.281L150.812 453.406C149.5 461.328 142.703 467.25 134.641 467.25H123.375V434.281H154Z" fill="#C9C9D3"/>
<path d="M149.156 471.938V476.625H99.9375C96.0465 476.625 92.9062 473.484 92.9062 469.594V422.562C92.9062 421.25 91.8754 420.219 90.5625 420.219H74V415.531H90.5625C94.4535 415.531 97.5938 418.672 97.5938 422.562V469.594C97.5938 470.906 98.6246 471.938 99.9375 471.938H149.156Z" fill="#474F54"/>
<path d="M123.375 471.938H149.156V476.625H123.375V471.938Z" fill="#32393F"/>
<path d="M104.625 486C100.748 486 97.5938 482.846 97.5938 478.969C97.5938 475.092 100.748 471.938 104.625 471.938C108.502 471.938 111.656 475.092 111.656 478.969C111.656 482.846 108.502 486 104.625 486Z" fill="#474F54"/>
<path d="M137.438 486C133.561 486 130.406 482.846 130.406 478.969C130.406 475.092 133.561 471.938 137.438 471.938C141.314 471.938 144.469 475.092 144.469 478.969C144.469 482.846 141.314 486 137.438 486Z" fill="#32393F"/>
<path d="M104.625 476.625C103.332 476.625 102.281 477.675 102.281 478.969C102.281 480.262 103.332 481.312 104.625 481.312C105.918 481.312 106.969 480.262 106.969 478.969C106.969 477.675 105.918 476.625 104.625 476.625Z" fill="#EFEFF4"/>
<path d="M137.438 476.625C136.144 476.625 135.094 477.675 135.094 478.969C135.094 480.262 136.144 481.312 137.438 481.312C138.731 481.312 139.781 480.262 139.781 478.969C139.781 477.675 138.731 476.625 137.438 476.625Z" fill="#DADAE5"/>
<path fill-rule="evenodd" clip-rule="evenodd" d="M139.734 425.937C139.781 426.359 139.781 426.828 139.781 427.25C139.781 427.672 139.781 428.141 139.734 428.562L144.469 431.703L137.438 443.891L132.656 440.703C131.906 441.219 131.203 441.641 130.406 442.016V448.344H116.344V442.015C115.547 441.64 114.844 441.219 114.094 440.703L109.312 443.891L102.281 431.703L107.016 428.562C106.969 428.141 106.969 427.672 106.969 427.25C106.969 426.828 106.969 426.359 107.016 425.937L102.281 422.797L109.312 410.609L114.094 413.797C114.844 413.281 115.547 412.859 116.344 412.484V406H130.406V412.484C131.203 412.859 131.906 413.281 132.656 413.797L137.438 410.609L144.469 422.797L139.734 425.937ZM116.344 427.25C116.344 431.14 119.484 434.281 123.375 434.281C127.266 434.281 130.406 431.14 130.406 427.25C130.406 423.359 127.266 420.219 123.375 420.219C119.484 420.219 116.344 423.359 116.344 427.25Z" fill="#FDBF00"/>
<path d="M139.734 428.562L144.469 431.703L137.438 443.891L132.656 440.703C131.906 441.219 131.203 441.641 130.406 442.016V448.344H123.375V434.281C127.266 434.281 130.406 431.14 130.406 427.25C130.406 423.359 127.266 420.219 123.375 420.219V406H130.406V412.484C131.203 412.859 131.906 413.281 132.656 413.797L137.438 410.609L144.469 422.797L139.734 425.937C139.781 426.359 139.781 426.828 139.781 427.25C139.781 427.672 139.781 428.141 139.734 428.562Z" fill="#FF9100"/>
<path d="M144.623 322.514V364.7H106.233L100.093 376.981L93.9524 364.7H74V322.514H144.623Z" fill="#64E1DC"/>
<path d="M109.468 322.514H144.623V364.7H109.468V322.514Z" fill="#00C8C8"/>
<path d="M83.375 341.264H97.7494V345.951H83.375V341.264Z" fill="#EFEFF4"/>
<path d="M83.375 331.889H102.437V336.576H83.375V331.889Z" fill="#EFEFF4"/>
<path d="M83.375 350.638H135.248V355.326H83.375V350.638Z" fill="#EFEFF4"/>
<path d="M147.371 315.65L119.483 343.538H112.854L109.539 340.224V333.595L137.428 305.706H144.057L147.371 309.021V315.65Z" fill="#FDBF00"/>
<path d="M147.371 315.65L119.483 343.538H112.854L111.196 341.881L145.714 307.364L147.371 309.021V315.65Z" fill="#FF9100"/>
<path d="M119.483 343.538L104.78 348.297L109.539 333.595L119.483 343.538Z" fill="#FED2A4"/>
<path d="M114.511 338.567L119.483 343.538L104.78 348.297L114.511 338.567Z" fill="#FFBD86"/>
<path d="M137.427 305.707L144.056 299.078L153.999 309.021L147.37 315.65L137.427 305.707Z" fill="#676E74"/>
<path d="M142.399 310.678L149.027 304.049L153.999 309.021L147.37 315.65L142.399 310.678Z" fill="#474F54"/>
<path d="M109.468 350.638H135.248V355.326H109.468V350.638Z" fill="#DADAE5"/>
<path fill-rule="evenodd" clip-rule="evenodd" d="M125.719 197.031V218.281L130.406 222.969L125.719 227.656V234.688C125.719 237.734 123.75 240.359 121.031 241.297C120.281 241.578 119.531 241.719 118.688 241.719H95.25C91.359 241.719 88.2188 238.578 88.2188 234.688V197.031C88.2188 193.14 91.359 190 95.25 190H118.688C119.531 190 120.281 190.141 121.031 190.422C123.75 191.359 125.719 193.984 125.719 197.031ZM111.656 223.156L116.344 218.281V199.375H97.5938V232.344H116.344V227.656L111.656 223.156Z" fill="#474F54"/>
<path d="M130.406 222.969L125.719 227.656V234.688C125.719 237.734 123.75 240.359 121.031 241.297V190.422C123.75 191.359 125.719 193.984 125.719 197.031V218.281L130.406 222.969Z" fill="#32393F"/>
<path d="M74 227.656H83.5312V232.344H74V227.656Z" fill="#9BFCFF"/>
<path d="M82.2312 222.575L75.0437 217.888L77.6438 213.987L84.8313 218.675L82.2312 222.575Z" fill="#9BFCFF"/>
<path d="M77.6438 246.013L75.0437 242.112L82.2312 237.425L84.8313 241.325L77.6438 246.013Z" fill="#9BFCFF"/>
<path d="M144.469 227.656H154V232.344H144.469V227.656Z" fill="#76E2F8"/>
<path d="M145.769 222.575L143.169 218.675L150.356 213.987L152.956 217.888L145.769 222.575Z" fill="#76E2F8"/>
<path d="M150.356 246.013L143.169 241.325L145.769 237.425L152.956 242.112L150.356 246.013Z" fill="#76E2F8"/>
<path d="M139.781 225.312V262.969C139.781 266.859 136.641 270 132.75 270H109.312C105.422 270 102.281 266.859 102.281 262.969V225.312C102.281 221.422 105.422 218.281 109.312 218.281H116.344V227.656H111.656V260.625H130.406V227.656H125.719V218.281H132.75C136.641 218.281 139.781 221.422 139.781 225.312Z" fill="#FF9100"/>
<path d="M139.781 225.312V262.969C139.781 266.859 136.641 270 132.75 270H121.031V260.625H130.406V227.656H125.719V218.281H132.75C136.641 218.281 139.781 221.422 139.781 225.312Z" fill="#FF641A"/>
<path d="M111.656 94.875H116.344V109.172H111.656V94.875Z" fill="#9BFCFF"/>
<path d="M95.7694 101.455L106.282 111.967L102.968 115.281L92.4558 104.769L95.7694 101.455Z" fill="#9BFCFF"/>
<path d="M132.23 101.455L135.544 104.769L126.275 114.039L122.961 110.725L132.23 101.455Z" fill="#76E2F8"/>
<path d="M111.656 132.375H116.344V151.281H111.656V132.375Z" fill="#9BFCFF"/>
<path d="M102.968 130.717L106.282 134.031L95.7694 144.544L92.4558 141.23L102.968 130.717Z" fill="#9BFCFF"/>
<path d="M85.875 120.656H95.6553V125.344H85.875V120.656Z" fill="#9BFCFF"/>
<path d="M132.345 120.656H142.125V125.344H132.345V120.656Z" fill="#76E2F8"/>
<path d="M125.032 130.717L135.545 141.23L132.231 144.544L121.718 134.031L125.032 130.717Z" fill="#76E2F8"/>
<path d="M114 94.875H116.344V109.172H114V94.875Z" fill="#76E2F8"/>
<path d="M114 132.375H116.344V151.281H114V132.375Z" fill="#76E2F8"/>
<path d="M129.891 117C128.25 110.906 122.766 106.594 116.344 106.594C115.547 106.594 114.75 106.641 114 106.828C110.813 107.344 107.906 108.938 105.75 111.375C101.906 110.672 98.2499 113.484 97.6877 117.188C94.7812 118.828 92.9062 121.922 92.9062 125.344C92.9062 130.5 97.125 134.719 102.281 134.719H125.719C130.875 134.719 135.094 130.5 135.094 125.344C135.094 121.734 133.031 118.547 129.891 117Z" fill="#EFEFF4"/>
<path d="M135.094 125.344C135.094 130.5 130.875 134.719 125.719 134.719H114V106.828C114.75 106.641 115.547 106.594 116.344 106.594C122.766 106.594 128.25 110.906 129.891 117C133.031 118.547 135.094 121.734 135.094 125.344Z" fill="#DADAE5"/>
<path d="M132.231 151.173C129.488 148.431 129.488 143.972 132.231 141.231C134.972 138.488 139.431 138.488 142.173 141.231C144.915 143.972 144.915 148.431 142.173 151.173C139.434 153.912 134.972 153.915 132.231 151.173Z" fill="#76E2F8"/>
<path d="M85.8268 104.769C83.0851 102.028 83.0851 97.5691 85.8268 94.8268C88.5691 92.0851 93.0277 92.0851 95.7694 94.8268C98.5117 97.5691 98.5117 102.028 95.7694 104.769C93.0302 107.509 88.5691 107.512 85.8268 104.769Z" fill="#9BFCFF"/>
<path d="M85.8268 151.173C83.0851 148.431 83.0851 143.972 85.8268 141.231C88.5691 138.488 93.0277 138.488 95.7694 141.231C98.5117 143.972 98.5117 148.431 95.7694 151.173C93.0302 153.912 88.5691 153.915 85.8268 151.173Z" fill="#9BFCFF"/>
<path d="M132.231 104.769C129.488 102.028 129.488 97.5691 132.231 94.8268C134.972 92.0851 139.431 92.0851 142.173 94.8268C144.915 97.5691 144.915 102.028 142.173 104.769C139.434 107.509 134.972 107.512 132.231 104.769Z" fill="#76E2F8"/>
<path d="M114 148.938C110.109 148.938 106.969 152.078 106.969 155.969C106.969 159.859 110.109 163 114 163C117.891 163 121.031 159.859 121.031 155.969C121.031 152.078 117.891 148.938 114 148.938Z" fill="#9BFCFF"/>
<path d="M81.1875 130.031C77.3105 130.031 74 126.877 74 123C74 119.123 77.3105 115.969 81.1875 115.969C85.0645 115.969 88.2188 119.123 88.2188 123C88.2188 126.877 85.0645 130.031 81.1875 130.031Z" fill="#9BFCFF"/>
<path d="M146.812 130.031C142.936 130.031 139.781 126.877 139.781 123C139.781 119.123 142.936 115.969 146.812 115.969C150.689 115.969 154 119.123 154 123C154 126.877 150.689 130.031 146.812 130.031Z" fill="#76E2F8"/>
<path d="M121.031 90.1875C121.031 94.0785 117.891 97.2188 114 97.2188C110.109 97.2188 106.969 94.0785 106.969 90.1875C106.969 86.2965 110.109 83 114 83C117.891 83 121.031 86.2965 121.031 90.1875Z" fill="#9BFCFF"/>
<path d="M121.031 155.969C121.031 159.859 117.891 163 114 163V148.938C117.891 148.938 121.031 152.078 121.031 155.969Z" fill="#76E2F8"/>
<path d="M114 97.2188V83C117.891 83 121.031 86.2965 121.031 90.1875C121.031 94.0785 117.891 97.2188 114 97.2188Z" fill="#76E2F8"/>
<path d="M145.703 794.063L152.641 801H128.062C113.859 801 102.281 789.266 102.281 775.062C102.281 773.094 102.516 771.125 102.937 769.25L122.25 749.937C124.125 749.516 126.094 749.281 128.062 749.281C142.266 749.281 154 760.859 154 775.062C154 782.281 151 789.187 145.703 794.063Z" fill="#64E1DC"/>
<path d="M145.703 794.063L152.641 801H128.062V749.281C142.266 749.281 154 760.859 154 775.062C154 782.281 151 789.187 145.703 794.063Z" fill="#00C8C8"/>
<path d="M116.344 772.719H139.781V777.406H116.344V772.719Z" fill="#DADAE5"/>
<path d="M121.031 782.094H135.094V786.781H121.031V782.094Z" fill="#DADAE5"/>
<path d="M121.031 763.344H135.094V768.031H121.031V763.344Z" fill="#DADAE5"/>
<path d="M128.062 763.344H135.094V768.031H128.062V763.344Z" fill="#C9C9D3"/>
<path d="M128.062 782.094H135.094V786.781H128.062V782.094Z" fill="#C9C9D3"/>
<path d="M128.062 772.719H139.781V777.406H128.062V772.719Z" fill="#C9C9D3"/>
<path d="M99.9375 721C85.734 721 74 732.734 74 746.938C74 754.156 76.9999 760.906 82.2971 765.781L75.3593 772.719H99.9375C114.141 772.719 125.719 761.141 125.719 746.938C125.719 732.734 114.141 721 99.9375 721Z" fill="#FDBF00"/>
<path d="M125.719 746.938C125.719 761.141 114.141 772.719 99.9375 772.719V721C114.141 721 125.719 732.734 125.719 746.938Z" fill="#FF9100"/>
<path d="M88.2188 744.594H111.656V749.281H88.2188V744.594Z" fill="#EFEFF4"/>
<path d="M92.9062 753.969H106.969V758.656H92.9062V753.969Z" fill="#EFEFF4"/>
<path d="M92.9062 735.219H106.969V739.906H92.9062V735.219Z" fill="#EFEFF4"/>
<path d="M99.9375 735.219H106.969V739.906H99.9375V735.219Z" fill="#DADAE5"/>
<path d="M99.9375 753.969H106.969V758.656H99.9375V753.969Z" fill="#DADAE5"/>
<path d="M99.9375 744.594H111.656V749.281H99.9375V744.594Z" fill="#DADAE5"/>
<path d="M381.875 59.8125C375.414 59.8125 370 65.0701 370 71.5312C370 77.9924 375.414 83.25 381.875 83.25H384.219L388.906 79.2949V63.4746L384.219 59.8125H381.875Z" fill="#FF9100"/>
<path d="M450 687.906V749H370V687.906L374.688 683.219H445.312L450 687.906Z" fill="#EFEFF4"/>
<path d="M370 669H450V687.906H370V669Z" fill="#474F54"/>
<path d="M450 590.125V642H370V590.125L374.688 585.438H445.312L450 590.125Z" fill="#EFEFF4"/>
<path d="M450 571.375V590.125H370V571.375H379.672L381.969 569.031L384.453 571.375H403.11L405.172 569.031L407.891 571.375H426.547L428.891 569.031L431.328 571.375H450Z" fill="#FF9100"/>
<path d="M377.188 502.031C373.311 502.031 370 498.877 370 495C370 491.123 373.311 487.969 377.188 487.969C381.064 487.969 384.219 491.123 384.219 495C384.219 498.877 381.064 502.031 377.188 502.031Z" fill="#9BFCFF"/>
<path d="M397.643 400.434C393.069 395.86 385.645 395.86 381.071 400.434C379.513 401.992 378.419 403.947 377.922 406.102L370 428.077L391.81 420.189C393.997 419.724 396.019 418.63 397.643 417.006C402.217 412.432 402.217 405.008 397.643 400.434Z" fill="#FFDA2D"/>
<path d="M370 428.077L397.643 400.434C402.217 405.008 402.217 412.432 397.643 417.007C396.019 418.63 393.997 419.724 391.81 420.189L370 428.077Z" fill="#FDBF00"/>
<path d="M404.47 371.817L389.006 372.611L372.014 389.603L391.906 393.583L404.47 371.817Z" fill="#676E74"/>
<path d="M374.844 278.5H388.906V318.656H374.844V278.5Z" fill="#FDBF00"/>
<path d="M381.875 255.062C377.984 255.062 374.844 258.203 374.844 262.094C374.844 265.984 377.984 269.125 381.875 269.125C385.766 269.125 388.906 265.984 388.906 262.094C388.906 258.203 385.766 255.062 381.875 255.062Z" fill="#9BFCFF"/>
<path d="M370 316.312H450V321H370V316.312Z" fill="#676E74"/>
<path d="M393.438 209.312H370V176.5H393.438V209.312Z" fill="#FF9100"/>
</g>
</svg>
